# xmcd CD database file
#
# Track frame offsets:
#	150
#	13860
#	30535
#	47175
#	61115
#	82100
#	96250
#	115495
#	129187
#	147887
#	167157
#
# Disc length: 2547 seconds
#
# Revision: 0
# Processed by: cddbd v1.5PL3 Copyright (c) Steve Scherf et al.
# Submitted via: CDex 1.51
#
DISCID=9209f10b
DTITLE=制服向上委員会 - 音楽は経済のドレイじゃない！
DYEAR=1999
DGENRE=Pop
TTITLE0=音楽は経済のドレイじゃない！
TTITLE1=1999
TTITLE2=どうしてかな？
TTITLE3=どうしたらいいの？
TTITLE4=初恋の並木路
TTITLE5=恋は不思議
TTITLE6=お誕生日
TTITLE7=My Sweet Lullaby
TTITLE8=最後のKiss
TTITLE9=引っ越し
TTITLE10=孤独の世界
EXTD=YEAR: 1999
EXTT0=
EXTT1=
EXTT2=
EXTT3=
EXTT4=
EXTT5=
EXTT6=
EXTT7=
EXTT8=
EXTT9=
EXTT10=
PLAYORDER=
